<?xml version="1.0" standalone="no"?><!DOCTYPE svg PUBLIC "-//W3C//DTD SVG 1.1//EN" "http://www.w3.org/Graphics/SVG/1.1/DTD/svg11.dtd"><svg t="1554726662458" class="icon" style="" viewBox="0 0 1024 1024" version="1.1" xmlns="http://www.w3.org/2000/svg" p-id="4121" xmlns:xlink="http://www.w3.org/1999/xlink" width="16" height="16"><defs><style type="text/css"></style></defs><path d="M570.026667 478.651733l-62.976 158.344534h-53.589334q3.413333-29.047467 10.683734-76.4928c-5.154133 13.9264-10.820267 27.989333-17.066667 42.120533l-14.813867 34.372267h-53.691733l22.357333-158.344534h42.530134q-1.2288 6.212267-13.994667 90.692267 3.1744-8.669867 35.874133-90.692267h40.96L491.52 569.344q13.243733-39.697067 36.113067-90.692267H570.026667z m-194.218667 78.1312H308.189867l-9.898667 38.2976a43.997867 43.997867 0 0 0-2.321067 15.4624 4.881067 4.881067 0 0 0 5.597867 3.413334 10.478933 10.478933 0 0 0 9.045333-4.539734 61.815467 61.815467 0 0 0 6.826667-17.783466l6.0416-23.3472h49.5616l-3.413333 13.038933a141.038933 141.038933 0 0 1-8.533334 25.224533 72.942933 72.942933 0 0 1-14.2336 18.807467 65.979733 65.979733 0 0 1-22.596266 15.018667 80.725333 80.725333 0 0 1-29.696 5.0176 70.314667 70.314667 0 0 1-27.9552-4.949334 32.631467 32.631467 0 0 1-16.213334-13.653333 38.4 38.4 0 0 1-4.846933-18.944 129.092267 129.092267 0 0 1 5.085867-30.1056l13.346133-51.6096a111.4112 111.4112 0 0 1 15.5648-36.625067 61.44 61.44 0 0 1 25.258667-20.48 80.349867 80.349867 0 0 1 33.655466-7.133866q22.016 0 34.133334 8.6016a32.904533 32.904533 0 0 1 14.1312 22.801066q2.082133 14.199467-4.539734 39.970134l-6.109866 23.4496z m-43.2128-63.488a8.328533 8.328533 0 0 0-7.611733 3.413334 84.992 84.992 0 0 0-6.0416 18.3296l-3.413334 12.936533h15.2576l3.413334-12.936533a68.9152 68.9152 0 0 0 3.1744-17.749334 4.130133 4.130133 0 0 0-4.778667-3.9936z m-43.3152-35.703466a67.447467 67.447467 0 0 0-27.784533 21.845333 116.224 116.224 0 0 0-17.066667 38.946133L229.649067 573.44a133.3248 133.3248 0 0 0-5.597867 31.982933 39.867733 39.867733 0 0 0 5.358933 20.138667 35.464533 35.464533 0 0 0 17.851734 14.404267l1.092266 0.375466-1.399466 5.12H184.32l-3.857067-121.2416-33.3824 121.2416H87.210667l73.454933-266.717866h59.8016l7.031467 120.081066 33.0752-120.081066h59.835733l-20.6848 75.093333a90.453333 90.453333 0 0 0-10.4448 3.754667zM629.0432 478.037333h25.361067l-5.4272 12.663467h10.5472l-8.738134 20.48h-10.5472l-3.925333 9.147733h8.430933l-9.3184 21.8112h-8.465066l-32.529067 76.049067q-7.748267 19.694933-25.019733 19.012267h-27.306667l7.816533-18.295467h14.779734a5.973333 5.973333 0 0 0 7.031466-4.9152l9.9328-23.2448-6.826666 7.748267a18.5344 18.5344 0 0 1-14.677334 6.3488h-9.250133l8.430933-19.729067h1.399467q3.413333 0 9.659733-7.748267l38.673067-49.288533 6.826667-16.1792h-26.043734l9.045334-21.128533h24.644266l5.4272-12.663467z m33.826133 19.729067a7.133867 7.133867 0 0 0 6.417067-3.413333l12.151467-17.066667h25.361066l-9.557333 14.097067h18.295467l7.133866-13.380267h23.2448l-7.133866 13.5168H757.76l-8.738133 20.48h-19.012267l-9.796267 23.074133h19.729067l-8.430933 19.694934h-20.48l-8.738134 20.48h20.48l-8.738133 20.48h-20.48l-8.430933 19.729066h19.729066l-7.816533 18.295467h-70.485333l-1.501867 3.413333h-23.2448L651.946667 519.5776h-2.798934l9.3184-21.8112h4.232534z m-19.729066 97.143467l-8.738134 20.48h26.760534l8.738133-20.48h-26.760533z m17.851733-40.1408l-8.738133 20.48h26.760533l8.738133-20.48h-26.760533z m35.328-19.694934l9.9328-23.2448h-26.043733l-9.9328 23.2448H696.32zM789.7088 513.9456l5.2224-5.632H826.026667l-5.2224 5.632h105.608533l-8.738133 20.48H804.181333l-22.3232 27.306667L750.592 634.88h-28.16l26.794667-62.6688H740.693333l9.045334-21.128533h5.632c1.672533 0.477867 4.061867-0.682667 7.133866-3.413334l12.049067-13.380266h-17.6128l8.738133-20.48h23.893334z m-9.693867-31.675733h12.663467l1.911467-7.748267h30.276266l-0.512 7.748267h73.9328l4.7104-7.748267h31.675734l-5.4272 7.748267h11.264l-9.045334 21.128533h-160.426666l9.045333-21.128533z m93.218134 81.681066h-79.5648l8.430933-19.729066h111.240533l-7.236266 17.066666-22.698667 17.066667-0.6144 1.399467h15.496533l-8.430933 19.729066h-15.496533l-8.738134 20.48q-6.519467 16.896-20.309333 16.1792h-40.96l7.543467-17.6128h23.2448a4.471467 4.471467 0 0 0 5.0176-3.413333l6.621866-15.496533H777.898667l8.430933-19.729067h67.584l19.285333-15.496533z" p-id="4122" fill="#d81e06"></path></svg>