<?xml version="1.0" standalone="no"?><!DOCTYPE svg PUBLIC "-//W3C//DTD SVG 1.1//EN" "http://www.w3.org/Graphics/SVG/1.1/DTD/svg11.dtd"><svg t="1554802796342" class="icon" style="" viewBox="0 0 1024 1024" version="1.1" xmlns="http://www.w3.org/2000/svg" p-id="1359" xmlns:xlink="http://www.w3.org/1999/xlink" width="16" height="16"><defs><style type="text/css"></style></defs><path d="M432.272001 68.198009a6.337 6.337 0 0 0 4.104 2.8 6.285 6.285 0 0 0 4.846-1.032l17.379-12.24c2.836-1.999 3.524-5.936 1.533-8.776999-14.552-20.762-26.18-36.457-34.564-46.65A6.286 6.286 0 0 0 420.700001 0.00001a6.292 6.292 0 0 0-3.516 1.071l-15.666 10.525a6.336 6.336 0 0 0-2.702 4.188 6.332 6.332 0 0 0 1.183 4.844c8.347 11.077 19.206 27.083 32.273 47.569999z" p-id="1360" fill="#1296db"></path><path d="M638.969999 213.062008a6.336 6.336 0 0 0-5.08-2.558l-0.158 0.002c-32.563 0.864-64.953999 1.303-96.272999 1.303-13.713 0-27.453-0.089-40.918-0.254a115.109999 115.109999 0 0 1 8.047-4.789c15.559-7.534 31.158-14.275 46.365-20.038a6.314 6.314 0 0 0 4.039-6.561 221.627998 221.627998 0 0 1-0.771-9.166c19.905 13.203 38.103 25.78 54.189999 37.454a6.32 6.32 0 0 0 4.715 1.119 6.267 6.267 0 0 0 4.12-2.56l12.239-17.132a6.334 6.334 0 0 0 1.065-4.839 6.346 6.346 0 0 0-2.75-4.111c-9.306-6.074-20.624-13.279-33.728-21.473a5355.531948 5355.531948 0 0 1 34.834-14.142999 6.355 6.355 0 0 0 3.719-4.136 6.269 6.269 0 0 0-0.997-5.467l-12.482-16.887a6.331 6.331 0 0 0-5.075-2.561 6.333 6.333 0 0 0-3.009 0.764l-0.474 0.257V12.18201a6.314 6.314 0 0 0-6.308-6.307H481.16a6.315 6.315 0 0 0-6.309 6.307v162.529998c0 4.852-1.643 8.699-5.173 12.107a6.31 6.31 0 0 0-0.64 8.354l11.735 15.44c-15.276-2.262-26.751-8.772-34.182999-19.451V88.551009a6.315 6.315 0 0 0-6.308-6.308h-47.976a6.315 6.315 0 0 0-6.308 6.308v18.114a6.315 6.315 0 0 0 6.308 6.307h22.82v73.431999c-6.644 6.199-16.523 15.631-29.404 28.074a6.286 6.286 0 0 0-1.274 7.331l10.037 20.319c0.953 1.926 2.796 3.224 4.979 3.475a6.289 6.289 0 0 0 5.546-2.263c9.618-11.688 17.539-20.766 23.623-27.076 12.915 16.268 32.736 24.745 58.998999 25.214 33.929 0.731 68.924999 1.102 104.015999 1.102 11.641 0 23.564-0.041 35.44-0.122a6.341 6.341 0 0 0 5.874-4.123c2.801-7.588 5.13-14.158 6.921-19.528a6.308 6.308 0 0 0-0.913-5.745zM506.071 94.482009V79.194009h73.543999v15.288h-73.543999z m0-44.058999V35.13501h73.543999v15.288h-73.543999z m6.012 85.272999a6.326 6.326 0 0 0-1.144 4.916 6.33 6.33 0 0 0 2.825 4.18c7.76 4.92 15.377 9.806 22.732 14.581999-11.247 4.83-21.433 9.073-30.426 12.678v-48.309999h14.924l-8.911 11.954z m67.531999-11.954v0.057a6.315 6.315 0 0 0 6.308 6.308h0.373a1075.728989 1075.728989 0 0 1-22.053 10.998 17460.949829 17460.949829 0 0 0-28.614999-17.362h43.986999zM892.661996 1024H131.338004c-43.391 0-78.690999-35.302-78.691-78.691999V482.739005c0-43.391 35.301-78.690999 78.691-78.690999h761.323992c43.391 0 78.690999 35.301 78.691 78.690999v109.555999c0 16.568-13.432 30-30 30H772.116997c-50.58 0-91.729999 41.149-91.729999 91.728999s41.15 91.728999 91.729999 91.728999h169.235999c16.568 0 30 13.432 30 30v109.554999c0.001 43.39-35.3 78.691999-78.691 78.691999zM131.338004 464.047005c-10.307 0-18.691 8.385-18.691 18.691v462.568996c0 10.307 8.385 18.692 18.691 18.692h761.323992c10.307 0 18.691-8.386 18.691-18.692v-79.554999H772.116997c-83.663999 0-151.729999-68.064999-151.729998-151.728999 0-83.662999 68.065999-151.728999 151.729998-151.728998h139.235999v-79.556c0-10.307-8.385-18.691-18.691-18.691H131.338004z" p-id="1361" fill="#1296db"></path><path d="M835.895997 714.023003c0 35.223-28.557 63.778999-63.779 63.778999-35.225 0-63.780999-28.557-63.780999-63.778999 0-35.228 28.557-63.779999 63.780999-63.779999 35.223 0 63.778999 28.553 63.779 63.779999zM809.608997 282.126007l29.42 106.674999h62.237999l-33.839999-122.704999c-6.551-23.757-27.432-41.317-51.957-43.697999a59.629999 59.629999 0 0 0-21.707 1.885L197.218003 388.801006h225.635998l386.754996-106.674999zM345.409002 25.31601C343.618002 10.22101 335.187002 1.78901 320.093002 0.00001c-8.89 0.895-15.551 4.455-19.986 10.658l-49.297999 70.617999-49.299-70.617999C197.054003 4.45501 190.392003 0.89501 181.524003 0.00001c-15.115 1.789-23.547 10.221-25.315 25.316 0 5.329 1.769 10.221 5.33 14.656l42.636 59.954999h-27.98c-9.785 0.896-15.113 5.79-15.988 14.658 0.875 8.889 6.203 13.782 15.988 14.656h49.299v22.651h-49.299c-9.785 0.896-15.113 5.787-15.988 14.656999 0.875 8.888 6.203 13.782 15.988 14.656h49.299v41.306c0.874 15.112 9.326 22.649 25.315 22.649 15.987 0 24.421-7.537 25.315999-22.649v-41.306h49.298c9.764-0.874 15.094-5.768 15.988-14.656-0.895-8.87-6.225-13.761-15.988-14.656999h-49.298v-22.651h49.298c9.764-0.874 15.094-5.767 15.988-14.656-0.895-8.869-6.225-13.762-15.988-14.658h-27.98l42.636-59.954999c3.539-4.435 5.33-9.327 5.33-14.656z" p-id="1362" fill="#1296db"></path></svg>