<?xml version="1.0" standalone="no"?><!DOCTYPE svg PUBLIC "-//W3C//DTD SVG 1.1//EN" "http://www.w3.org/Graphics/SVG/1.1/DTD/svg11.dtd"><svg t="1554693870341" class="icon" style="" viewBox="0 0 1024 1024" version="1.1" xmlns="http://www.w3.org/2000/svg" p-id="3750" xmlns:xlink="http://www.w3.org/1999/xlink" width="16" height="16"><defs><style type="text/css"></style></defs><path d="M701.476399 728.785372l-71.168899-71.16276-20.655436 20.672832 81.487919 81.479733c5.721305 5.721305 14.965853 5.721305 20.670785 0l156.925029-156.916842-20.656459-20.656459L701.476399 728.785372z" p-id="3751" fill="#1296db"></path><path d="M143.177933 838.538031c-21.450545 0-38.256302-17.528212-38.256302-39.908942L104.921631 344.540034l710.379163 0 0 68.924789 47.89073 0L863.191524 296.649304l-0.092098 0c0.008186-4.178159-0.989537-8.40953-3.281743-12.260232L742.085282 134.734634c-4.318352-7.242961-12.135388-11.685133-20.570501-11.685133l-117.731378 0-159.635767 0-245.439992 0c-8.433066 0-16.251126 4.442172-20.569478 11.685133L60.406788 284.389072c-2.292206 3.850701-3.289929 8.082072-3.281743 12.260232l-0.094144 0 0 501.979786c0 49.231261 37.851073 87.799672 86.147032 87.799672l300.969703 0 63.622016 0 0-47.89073-63.622016 0L143.177933 838.538031zM476.073766 170.939207l127.708614 0 104.130615 0 102.034884 125.710097L476.073766 296.649304 476.073766 170.939207zM212.30943 170.939207l231.837182 0L444.146613 296.649304 110.273523 296.649304 212.30943 170.939207z" p-id="3752" fill="#1296db"></path><path d="M739.195465 447.64939c-124.33375 0-225.485521 101.151771-225.485521 225.485521 0 124.332726 101.151771 225.485521 225.485521 225.485521s225.485521-101.152794 225.485521-225.485521C964.680986 548.800138 863.529215 447.64939 739.195465 447.64939zM739.195465 866.693278c-106.72572 0-193.558367-86.833671-193.558367-193.558367 0-106.72572 86.832647-193.558367 193.558367-193.558367 106.724697 0 193.558367 86.832647 193.558367 193.558367C932.753833 779.858584 845.920162 866.693278 739.195465 866.693278z" p-id="3753" fill="#1296db"></path></svg>