<?xml version="1.0" standalone="no"?><!DOCTYPE svg PUBLIC "-//W3C//DTD SVG 1.1//EN" "http://www.w3.org/Graphics/SVG/1.1/DTD/svg11.dtd"><svg t="1554803222807" class="icon" style="" viewBox="0 0 1444 1024" version="1.1" xmlns="http://www.w3.org/2000/svg" p-id="4696" xmlns:xlink="http://www.w3.org/1999/xlink" width="22.5625" height="16"><defs><style type="text/css"></style></defs><path d="M1030.482878 611.453237m-412.546763 0a412.546763 412.546763 0 1 0 825.093525 0 412.546763 412.546763 0 1 0-825.093525 0Z" fill="#FFD9D9" p-id="4697"></path><path d="M117.870504 300.569784m-117.870504 0a117.870504 117.870504 0 1 0 235.741007 0 117.870504 117.870504 0 1 0-235.741007 0Z" fill="#FFD9D9" p-id="4698"></path><path d="M350.075396 720.778129H123.469353a41.844029 41.844029 0 0 1-38.307914-44.496115v-188.003453l-42.728058-24.163453a35.950504 35.950504 0 0 1-10.608345-53.041727c70.722302-107.556835 83.982734-107.556835 91.644317-107.556834h36.539856a15.028489 15.028489 0 0 1 12.081726 6.188201l67.480864 98.716547 61.882014-98.127194a14.14446 14.14446 0 0 1 12.376403-6.777554h36.24518c7.366906 0 20.627338 0 88.402877 99.011223a35.066475 35.066475 0 0 1 6.777554 29.467626 35.655827 35.655827 0 0 1-17.975251 25.047482l-40.075972 29.467626v189.182158a41.844029 41.844029 0 0 1-37.129208 45.085467zM126.710791 332.984173a743.468201 743.468201 0 0 0-71.016978 95.180431 7.661583 7.661583 0 0 0-1.768058 6.188202 6.777554 6.777554 0 0 0 2.946763 4.125467l50.38964 29.467626a14.733813 14.733813 0 0 1 7.366907 12.965756v196.549064c0 8.545612 4.71482 15.028489 8.840288 15.02849h226.606043c4.125468 0 8.840288-6.482878 8.840287-15.02849v-197.727769a15.028489 15.028489 0 0 1 5.598849-11.787051L412.546763 431.406043c4.125468-2.652086 4.71482-4.420144 5.009496-5.598849a5.893525 5.893525 0 0 0-1.473381-5.304172 632.375252 632.375252 0 0 0-68.954245-88.402878h-25.047482L252.537554 443.193094a14.733813 14.733813 0 0 1-12.376403 6.777553 13.849784 13.849784 0 0 1-12.376403-6.777553l-75.731798-110.208921z" fill="#2D2F33" p-id="4699"></path><path d="M1064.370647 833.639137H595.540719a71.016978 71.016978 0 0 1-63.355395-76.615828l29.467626-397.223597-124.058705-54.515108a58.935252 58.935252 0 0 1-18.564605-88.402877c94.296403-143.507338 154.115683-216.881727 176.805756-216.881727h75.437122a14.733813 14.733813 0 0 1 12.965755 7.956259 169.144173 169.144173 0 0 0 144.98072 85.456115 180.931223 180.931223 0 0 0 147.338129-86.045468 14.733813 14.733813 0 0 1 12.965756-6.188201h74.847769c22.984748 0 80.741295 66.891511 173.269641 198.611799a56.577842 56.577842 0 0 1 12.081726 47.148201 58.935252 58.935252 0 0 1-29.467626 40.665324l-120.227913 70.722302 29.467626 397.518273a71.311655 71.311655 0 0 1-65.123454 77.794533zM595.540719 30.646331c-15.617842 7.07223-92.528345 111.976978-153.231654 204.505324a29.467626 29.467626 0 0 0-6.482878 24.458129 29.467626 29.467626 0 0 0 14.14446 19.153957l132.309641 58.935252a15.617842 15.617842 0 0 1 8.840288 14.733813l-29.467626 406.358561c0 24.752806 15.323165 46.264173 33.887769 46.264173h468.829928c18.269928 0 33.88777-21.511367 33.88777-47.148202l-29.467626-405.474532a15.028489 15.028489 0 0 1 7.366907-13.849784l128.478849-76.026475a29.467626 29.467626 0 0 0 8.545611-43.906763c-58.935252-85.750791-133.193669-180.931223-150.874244-187.414101h-64.534101a206.273381 206.273381 0 0 1-168.849496 93.412375A198.022446 198.022446 0 0 1 662.43223 30.646331z" fill="#2D2F33" p-id="4700"></path><path d="M989.522878 30.646331H670.977842a14.733813 14.733813 0 0 1-14.733813-14.733813 14.733813 14.733813 0 0 1 14.733813-14.733813h318.545036a14.733813 14.733813 0 0 1 14.733813 14.733813 14.733813 14.733813 0 0 1-14.733813 14.733813zM575.502734 373.649496a14.733813 14.733813 0 0 1-14.733813-14.733813v-117.870503a15.028489 15.028489 0 0 1 14.733813-14.733813 14.733813 14.733813 0 0 1 14.733813 14.733813v117.870503a14.733813 14.733813 0 0 1-14.733813 14.733813zM1082.640576 373.649496a14.733813 14.733813 0 0 1-14.733813-14.733813v-117.870503a14.733813 14.733813 0 0 1 29.467625 0v117.870503a14.733813 14.733813 0 0 1-14.733812 14.733813zM1093.543597 599.960863H743.762878a14.733813 14.733813 0 0 1-14.733813-14.733813 14.733813 14.733813 0 0 1 14.733813-14.733813h349.780719a14.733813 14.733813 0 0 1 14.733813 14.733813 14.733813 14.733813 0 0 1-14.733813 14.733813zM1106.509353 705.74964H743.762878a14.733813 14.733813 0 0 1 0-29.467626h362.746475a14.733813 14.733813 0 0 1 0 29.467626z" fill="#2D2F33" p-id="4701"></path></svg>