<?xml version="1.0" standalone="no"?><!DOCTYPE svg PUBLIC "-//W3C//DTD SVG 1.1//EN" "http://www.w3.org/Graphics/SVG/1.1/DTD/svg11.dtd"><svg t="1554803281348" class="icon" style="" viewBox="0 0 1024 1024" version="1.1" xmlns="http://www.w3.org/2000/svg" p-id="5614" xmlns:xlink="http://www.w3.org/1999/xlink" width="16" height="16"><defs><style type="text/css"></style></defs><path d="M200.96 608h614.4v12.8h-614.4z" p-id="5615" fill="#d4237a"></path><path d="M512 0a512 512 0 1 0 512 512A512 512 0 0 0 512 0z m339.968 394.496L823.552 384h-5.888l11.008 9.216 9.216 7.68 5.888 4.352 2.048 11.776V614.4h-15.36v186.624H185.344V614.4h-15.36v-197.888l5.12-13.824 4.096-2.304 41.984-34.816 17.152-14.336c-55.808 6.912-93.952 20.736-114.944 41.728a196.352 196.352 0 0 1 45.056-88.064 230.4 230.4 0 0 1 82.432-20.48 123.392 123.392 0 0 1 16.64 0 276.736 276.736 0 0 1 34.56-83.2A259.328 259.328 0 0 1 384 230.4c15.872 9.728 29.184 18.432 40.704 25.6a309.248 309.248 0 0 1 66.304 51.2 12.8 12.8 0 0 1 8.448-3.072h19.968a13.312 13.312 0 0 1 7.424 2.304 479.232 479.232 0 0 1 57.6-45.056c12.288-7.424 29.952-17.92 49.152-30.976A259.328 259.328 0 0 1 716.8 199.68a325.12 325.12 0 0 1 38.4 97.792 347.136 347.136 0 0 1 55.296 4.864 174.08 174.08 0 0 1 72.192 27.136 215.04 215.04 0 0 1 40.448 102.4 244.992 244.992 0 0 0-71.168-37.376z" p-id="5616" fill="#d4237a"></path><path d="M401.408 424.448a47.36 47.36 0 0 1 17.664 36.352h-23.808a32.512 32.512 0 0 0-11.264-20.48 40.96 40.96 0 0 0-24.32-5.888 45.824 45.824 0 0 0-20.992 3.84 16.64 16.64 0 0 0 0 30.208 174.592 174.592 0 0 0 25.6 8.96 219.904 219.904 0 0 1 38.4 14.336 35.072 35.072 0 0 1 18.944 31.488 36.864 36.864 0 0 1-15.36 31.232 72.96 72.96 0 0 1-43.264 11.264 73.472 73.472 0 0 1-42.24-10.496 48.128 48.128 0 0 1-19.968-40.704h23.552a34.304 34.304 0 0 0 12.032 23.808 46.336 46.336 0 0 0 25.6 6.4 51.2 51.2 0 0 0 25.6-5.376 16.64 16.64 0 0 0 9.472-14.592 20.736 20.736 0 0 0-13.824-18.432c-3.328-1.536-12.8-4.864-28.416-9.728a197.888 197.888 0 0 1-33.536-12.288 32 32 0 0 1-16.896-29.44 34.816 34.816 0 0 1 16.384-30.464 65.792 65.792 0 0 1 38.912-10.752 66.56 66.56 0 0 1 41.728 10.752zM528.64 470.016a57.344 57.344 0 0 1 14.336 39.936 56.32 56.32 0 0 1-14.336 39.936 55.552 55.552 0 0 1-76.8 0 56.576 56.576 0 0 1-14.336-39.936 55.552 55.552 0 0 1 14.592-39.936 51.2 51.2 0 0 1 38.656-15.872 51.2 51.2 0 0 1 37.888 15.872z m-61.44 14.592a51.2 51.2 0 0 0 0 51.2 25.6 25.6 0 0 0 22.528 11.52 25.6 25.6 0 0 0 22.528-11.52 42.752 42.752 0 0 0 7.168-25.6 41.728 41.728 0 0 0-7.168-25.6 25.6 25.6 0 0 0-22.528-11.52 25.6 25.6 0 0 0-22.528 11.52zM565.504 413.696H588.8V563.2h-23.552zM691.2 413.696h23.296V563.2h-21.76v-11.264a37.376 37.376 0 0 1-31.744 14.08 44.288 44.288 0 0 1-36.864-16.64 61.696 61.696 0 0 1-12.288-39.68 59.136 59.136 0 0 1 12.032-38.656 42.752 42.752 0 0 1 35.84-16.64 38.656 38.656 0 0 1 31.488 17.408z m-49.152 69.632a43.776 43.776 0 0 0-6.4 25.6 49.152 49.152 0 0 0 5.888 25.6 25.6 25.6 0 0 0 22.784 11.008 25.6 25.6 0 0 0 21.248-10.752A45.312 45.312 0 0 0 691.2 512v-1.792a41.216 41.216 0 0 0-8.192-25.6 22.784 22.784 0 0 0-18.688-9.216 25.6 25.6 0 0 0-22.528 7.936z" p-id="5617" fill="#d4237a"></path></svg>